<?xml version="1.0" encoding="UTF-8" standalone="no"?>
<!-- Created with Inkscape (http://www.inkscape.org/) -->

<svg
   xmlns:dc="http://purl.org/dc/elements/1.1/"
   xmlns:cc="http://creativecommons.org/ns#"
   xmlns:rdf="http://www.w3.org/1999/02/22-rdf-syntax-ns#"
   xmlns:svg="http://www.w3.org/2000/svg"
   xmlns="http://www.w3.org/2000/svg"
   xmlns:xlink="http://www.w3.org/1999/xlink"
   xmlns:sodipodi="http://sodipodi.sourceforge.net/DTD/sodipodi-0.dtd"
   xmlns:inkscape="http://www.inkscape.org/namespaces/inkscape"
   id="svg3390"
   version="1.1"
   inkscape:version="0.91 r13725"
   width="825"
   height="412.5"
   viewBox="0 0 825 412.5"
   sodipodi:docname="logo4.svg">
  <metadata
     id="metadata3396">
    <rdf:RDF>
      <cc:Work
         rdf:about="">
        <dc:format>image/svg+xml</dc:format>
        <dc:type
           rdf:resource="http://purl.org/dc/dcmitype/StillImage" />
        <dc:title></dc:title>
      </cc:Work>
    </rdf:RDF>
  </metadata>
  <defs
     id="defs3394" />
  <sodipodi:namedview
     pagecolor="#ffffff"
     bordercolor="#666666"
     borderopacity="1"
     objecttolerance="10"
     gridtolerance="10"
     guidetolerance="10"
     inkscape:pageopacity="0"
     inkscape:pageshadow="2"
     inkscape:window-width="1366"
     inkscape:window-height="744"
     id="namedview3392"
     showgrid="false"
     inkscape:snap-intersection-paths="true"
     showguides="false"
     inkscape:zoom="0.36363636"
     inkscape:cx="-134.32838"
     inkscape:cy="217.74495"
     inkscape:window-x="0"
     inkscape:window-y="24"
     inkscape:window-maximized="1"
     inkscape:current-layer="layer3" />
  <image
     sodipodi:absref="/home/faliszek/Dokumenty/logo2.png"
     xlink:href="logo2.png"
     y="0"
     x="0"
     id="image3398"
     style="image-rendering:optimizeQuality"
     preserveAspectRatio="none"
     height="412.5"
     width="825" />
  <g
     inkscape:label="Layer 1 kopia"
     id="g4262"
     inkscape:groupmode="layer"
     style="display:inline">
    <ellipse
       ry="9.28125"
       rx="20.28125"
       cy="187.34375"
       cx="342.03125"
       id="ellipse4264"
       style="fill:#373737;fill-opacity:1;stroke:#d32f2f;stroke-width:0;stroke-miterlimit:0;stroke-dasharray:none;stroke-opacity:1" />
    <g
       id="g4266"
       transform="translate(0.6875,103.125)"
       style="stroke:#1d1715;stroke-opacity:1">
      <circle
         style="fill:#1d1715;fill-opacity:1;stroke:#1d1715;stroke-width:0;stroke-miterlimit:0;stroke-dasharray:none;stroke-opacity:1"
         id="circle4268"
         cx="-374.51401"
         cy="118.29953"
         r="174.57547"
         transform="scale(-1,1)" />
      <path
         style="opacity:0.98000004;fill:#1d1715;fill-opacity:1;fill-rule:evenodd;stroke:#1d1715;stroke-width:1.19777334px;stroke-linecap:butt;stroke-linejoin:miter;stroke-opacity:1"
         d="m 518.20937,19.689094 -4.94081,-12.969634 -0.20588,-11.322707 1.02934,-7.411223 5.97015,-6.587753 8.23469,-5.558411 292.53743,0 -45.2908,-30.46836 -413.38153,-1.646938 -14.82244,17.292853 94.69895,69.171411 z"
         id="path4270"
         inkscape:connector-curvature="0" />
    </g>
  </g>
  <g
     inkscape:groupmode="layer"
     id="layer2"
     inkscape:label="Layer 1"
     style="display:inline">
    <ellipse
       style="fill:#373737;fill-opacity:1;stroke:#d32f2f;stroke-width:0;stroke-miterlimit:0;stroke-dasharray:none;stroke-opacity:1"
       id="path4251"
       cx="342.03125"
       cy="187.34375"
       rx="20.28125"
       ry="9.28125" />
    <g
       id="g4258"
       style="fill:#d32f2f;fill-opacity:1;stroke:#d32f2f;stroke-opacity:1">
      <circle
         r="145.75"
         cy="224.125"
         cx="374.6875"
         id="path4249"
         style="fill:#d32f2f;fill-opacity:1;stroke:#d32f2f;stroke-width:0;stroke-miterlimit:0;stroke-dasharray:none;stroke-opacity:1" />
      <path
         inkscape:connector-curvature="0"
         id="path4256"
         d="m 254.71875,141.79687 4.125,-10.82812 0.17188,-9.45313 -0.85938,-6.1875 -4.98437,-5.5 -6.875,-4.64062 -244.23438,0 L 39.875,79.75 385,78.375 l 12.375,14.4375 -79.0625,57.75 z"
         style="opacity:0.98000004;fill:#d32f2f;fill-opacity:1;fill-rule:evenodd;stroke:#d32f2f;stroke-width:1px;stroke-linecap:butt;stroke-linejoin:miter;stroke-opacity:1" />
    </g>
  </g>
  <g
     inkscape:groupmode="layer"
     id="layer3"
     inkscape:label="3">
    <path
       style="fill:#ffffff;fill-opacity:1;fill-rule:evenodd;stroke:#ffffff;stroke-width:1px;stroke-linecap:butt;stroke-linejoin:miter;stroke-opacity:1"
       d="m 390.64442,286.5908 -1.94454,7.77817 -4.6183,7.29204 -6.31976,6.56284 -9.23658,5.83363 -8.26432,3.88909 -9.47965,1.4584 -8.50737,0.72921 -9.96579,-1.21534 -7.77817,-3.88909 -7.77818,-5.3475 -4.13215,-6.8059 -2.18762,-8.02124 0.48614,-8.50738 3.40295,-9.47965 3.88909,-6.0767 9.23658,-8.75044 7.77818,-4.6183 12.15339,-4.13215 9.23659,-0.97227 9.72271,0.48613 2.18762,0.97227 0,-130.04135 1.70147,-3.88909 4.86136,-3.64602 4.37522,-0.48613 3.88909,1.94454 3.40295,2.67375 1.21534,3.15988 0,5.3475 0.24307,8.99351 2.43068,4.37522 8.75045,9.47965 9.23658,7.77818 11.42419,7.77817 8.02124,6.0767 6.56284,5.59056 7.04897,11.18113 2.67375,4.61829 1.70147,4.37522 1.45841,4.86136 1.70148,7.04897 1.21534,8.02125 0,9.23658 -0.97228,7.04897 -2.43067,6.8059 -1.94455,2.43068 -3.15988,0.24307 -2.67375,-1.21534 -2.43068,-3.64602 -0.97227,-3.88909 -2.18761,-6.31976 -3.64602,-5.10443 -4.61829,-5.3475 -6.80591,-7.04897 -6.07669,-4.13215 -8.99352,-5.83363 -6.8059,-3.15989 -5.10443,-1.94454 -0.7292,90.42128 z"
       id="path4273"
       inkscape:connector-curvature="0" />
  </g>
</svg>
